<svg width="38" height="39" viewBox="0 0 38 39" fill="none" xmlns="http://www.w3.org/2000/svg">
<g filter="url(#filter0_d_14_1047)">
<path d="M19 0C16.0333 0 13.1332 0.909059 10.6665 2.61222C8.19971 4.31538 6.27713 6.73615 5.14181 9.5684C4.0065 12.4007 3.70945 15.5172 4.28823 18.5239C4.86701 21.5306 6.29562 24.2924 8.3934 26.4601C10.4912 28.6279 13.1639 30.1041 16.0736 30.7022C18.9834 31.3002 21.9994 30.9933 24.7403 29.8201C27.4811 28.647 29.8238 26.6603 31.472 24.1113C33.1203 21.5624 34 18.5656 34 15.5C34 11.3891 32.4196 7.44666 29.6066 4.53984C26.7936 1.63303 22.9783 0 19 0ZM26.5 21.4094C26.7486 21.6663 26.8883 22.0148 26.8883 22.3781C26.8883 22.7415 26.7486 23.0899 26.5 23.3469C26.2514 23.6038 25.9141 23.7481 25.5625 23.7481C25.2109 23.7481 24.8736 23.6038 24.625 23.3469L19 17.5344L13.375 23.3662C13.2519 23.4935 13.1057 23.5944 12.9449 23.6632C12.784 23.7321 12.6116 23.7675 12.4375 23.7675C12.2634 23.7675 12.091 23.7321 11.9301 23.6632C11.7693 23.5944 11.6231 23.4935 11.5 23.3662C11.3769 23.239 11.2792 23.088 11.2126 22.9218C11.146 22.7556 11.1117 22.5774 11.1117 22.3975C11.1117 22.2176 11.146 22.0394 11.2126 21.8732C11.2792 21.707 11.3769 21.556 11.5 21.4287L17.125 15.5775L11.3406 9.55187C11.092 9.29494 10.9523 8.94647 10.9523 8.58312C10.9523 8.21977 11.092 7.8713 11.3406 7.61437C11.5893 7.35744 11.9265 7.2131 12.2781 7.2131C12.6298 7.2131 12.967 7.35744 13.2156 7.61437L19 13.6594L24.7844 7.68219C24.9075 7.55497 25.0536 7.45405 25.2145 7.3852C25.3754 7.31635 25.5478 7.28092 25.7219 7.28092C25.896 7.28092 26.0684 7.31635 26.2292 7.3852C26.3901 7.45405 26.5363 7.55497 26.6594 7.68219C26.7825 7.8094 26.8801 7.96043 26.9468 8.12665C27.0134 8.29287 27.0477 8.47102 27.0477 8.65094C27.0477 8.83085 27.0134 9.009 26.9468 9.17522C26.8801 9.34144 26.7825 9.49247 26.6594 9.61969L20.875 15.5775L26.5 21.4094Z" fill="white"/>
</g>
<defs>
<filter id="filter0_d_14_1047" x="0" y="0" width="38" height="39" filterUnits="userSpaceOnUse" color-interpolation-filters="sRGB">
<feFlood flood-opacity="0" result="BackgroundImageFix"/>
<feColorMatrix in="SourceAlpha" type="matrix" values="0 0 0 0 0 0 0 0 0 0 0 0 0 0 0 0 0 0 127 0" result="hardAlpha"/>
<feOffset dy="4"/>
<feGaussianBlur stdDeviation="2"/>
<feComposite in2="hardAlpha" operator="out"/>
<feColorMatrix type="matrix" values="0 0 0 0 0 0 0 0 0 0 0 0 0 0 0 0 0 0 0.25 0"/>
<feBlend mode="normal" in2="BackgroundImageFix" result="effect1_dropShadow_14_1047"/>
<feBlend mode="normal" in="SourceGraphic" in2="effect1_dropShadow_14_1047" result="shape"/>
</filter>
</defs>
</svg>
