<svg width="61" height="61" viewBox="0 0 61 61" fill="none" xmlns="http://www.w3.org/2000/svg">
<path d="M56.7804 33.96C56.1548 38.7303 54.2425 43.2404 51.2485 47.0065C48.2545 50.7726 44.2918 53.6526 39.7854 55.3378C35.279 57.0229 30.3989 57.4496 25.6684 56.572C20.9379 55.6944 16.5356 53.5457 12.9335 50.3562C9.33143 47.1668 6.6655 43.057 5.22163 38.4676C3.77776 33.8782 3.61042 28.9823 4.73757 24.305C5.86471 19.6277 8.24381 15.3455 11.6197 11.9176C14.9956 8.48963 19.241 6.04532 23.9005 4.84679C36.8172 1.53395 50.1878 8.18281 55.1239 20.5728" stroke="white" stroke-width="7" stroke-linecap="round" stroke-linejoin="round"/>
<path d="M57.0022 4.00873V20.5729H40.438" stroke="white" stroke-width="7" stroke-linecap="round" stroke-linejoin="round"/>
</svg>
