<svg width="31" height="31" viewBox="0 0 31 31" fill="none" xmlns="http://www.w3.org/2000/svg">
<path d="M30.9234 1.73008C31.0066 1.49937 31.0224 1.24974 30.969 1.01036C30.9156 0.770989 30.7951 0.551772 30.6217 0.378345C30.4482 0.204917 30.229 0.0844472 29.9896 0.0310206C29.7503 -0.0224061 29.5006 -0.00658132 29.2699 0.0766449L0.851441 10.4106C0.605517 10.4998 0.392459 10.6615 0.240457 10.8744C0.088454 11.0873 0.00467011 11.3414 0.000189577 11.6029C-0.00429096 11.8645 0.070743 12.1212 0.215364 12.3392C0.359986 12.5572 0.567379 12.7261 0.810105 12.8236L12.2628 17.4042L19.7549 9.42116L21.5814 11.2477L13.8826 19.4529L18.1764 30.1899C18.2737 30.4327 18.4424 30.6403 18.6602 30.7851C18.878 30.93 19.1347 31.0053 19.3962 31.0011C19.6578 30.9969 19.9119 30.9134 20.1249 30.7616C20.338 30.6098 20.4999 30.397 20.5894 30.1511L30.9234 1.73008Z" fill="white"/>
<path d="M30.9234 1.73008C31.0066 1.49937 31.0224 1.24974 30.969 1.01036C30.9156 0.770989 30.7951 0.551772 30.6217 0.378345C30.4482 0.204917 30.229 0.0844472 29.9896 0.0310206C29.7503 -0.0224061 29.5006 -0.00658132 29.2699 0.0766449L0.851441 10.4106C0.605517 10.4998 0.392459 10.6615 0.240457 10.8744C0.088454 11.0873 0.00467011 11.3414 0.000189577 11.6029C-0.00429096 11.8645 0.070743 12.1212 0.215364 12.3392C0.359986 12.5572 0.567379 12.7261 0.810105 12.8236L12.2628 17.4042L19.7549 9.42116L21.5814 11.2477L13.8826 19.4529L18.1764 30.1899C18.2737 30.4327 18.4424 30.6403 18.6602 30.7851C18.878 30.93 19.1347 31.0053 19.3962 31.0011C19.6578 30.9969 19.9119 30.9134 20.1249 30.7616C20.338 30.6098 20.4999 30.397 20.5894 30.1511L30.9234 1.73008Z" fill="white"/>
</svg>
