<svg width="31" height="39" viewBox="0 0 31 39" fill="none" xmlns="http://www.w3.org/2000/svg">
<path d="M9.95617 20.8949H13.6521V15.7762H17.3479V20.8949H21.0438V12.1119L15.5 8.44975L9.95399 12.1119L9.95617 20.8949ZM15.5 39C10.3668 34.5024 6.50056 30.3078 3.90121 26.4163C1.3004 22.5247 0 18.9831 0 15.7913C0 11.2129 1.50427 7.43682 4.51282 4.46296C7.52283 1.48765 11.1852 0 15.5 0C19.8148 0 23.4772 1.48765 26.4872 4.46296C29.4957 7.43682 31 11.2129 31 15.7913C31 18.9831 29.7003 22.5247 27.101 26.4163C24.5002 30.3078 20.6332 34.5024 15.5 39Z" fill="white"/>
</svg>
