<svg width="32" height="32" viewBox="0 0 32 32" fill="none" xmlns="http://www.w3.org/2000/svg">
<path d="M20.2287 21.6062L19.4957 22.3796C19.4957 22.3796 17.7509 24.2148 12.9901 19.2023C8.22927 14.1899 9.97409 12.3547 9.97409 12.3547L10.4365 11.8665C11.5739 10.6678 11.6819 8.74401 10.6878 7.33904L8.65782 4.46627C7.42694 2.72617 5.05057 2.49738 3.64086 3.9813L1.11304 6.64139C0.415432 7.37771 -0.0517872 8.32993 0.0046013 9.38849C0.1496 12.0953 1.30637 17.9166 7.75722 24.711C14.5996 31.9131 21.0198 32.1999 23.6443 31.9405C24.4756 31.8599 25.1974 31.4104 25.779 30.7981L28.0667 28.3878C29.6134 26.7605 29.1784 23.9731 27.2 22.8356L24.1228 21.0632C22.8242 20.3173 21.2437 20.5364 20.2287 21.6046" fill="white"/>
<path d="M24.0014 16C25.7411 15.9997 27.4333 15.4323 28.8215 14.3838C30.2098 13.3353 31.2184 11.8628 31.6946 10.1895C32.1707 8.51619 32.0884 6.73329 31.4601 5.11097C30.8319 3.48865 29.6919 2.11535 28.2129 1.19918C26.734 0.283016 24.9967 -0.126075 23.2643 0.033905C21.532 0.193885 19.899 0.914216 18.6129 2.08573C17.3267 3.25725 16.4575 4.8161 16.137 6.52604C15.8164 8.23598 16.062 10.0038 16.8366 11.5616C16.9826 11.8446 17.0207 12.171 16.9438 12.48L16.467 14.2608C16.4198 14.4371 16.4198 14.6227 16.467 14.7991C16.5143 14.9754 16.6071 15.1361 16.7362 15.2652C16.8652 15.3942 17.026 15.4871 17.2023 15.5343C17.3786 15.5816 17.5642 15.5816 17.7406 15.5344L19.5214 15.0576C19.8304 14.9807 20.1568 15.0188 20.4398 15.1648C21.5465 15.7145 22.7656 16.0004 24.0014 16Z" fill="white"/>
</svg>
