<svg width="30" height="33" viewBox="0 0 30 33" fill="none" xmlns="http://www.w3.org/2000/svg">
<path d="M0 29.2286V12.2571C0 11.66 0.133125 11.0943 0.399375 10.56C0.665624 10.0257 1.0325 9.58571 1.5 9.24L12.75 0.754286C13.4062 0.251429 14.1562 0 15 0C15.8437 0 16.5937 0.251429 17.25 0.754286L28.5 9.24C28.9687 9.58571 29.3362 10.0257 29.6025 10.56C29.8687 11.0943 30.0012 11.66 30 12.2571V29.2286C30 30.2657 29.6325 31.1539 28.8975 31.8931C28.1625 32.6323 27.28 33.0012 26.25 33H20.625C20.0937 33 19.6487 32.819 19.29 32.4569C18.9312 32.0948 18.7512 31.6473 18.75 31.1143V21.6857C18.75 21.1514 18.57 20.7039 18.21 20.3431C17.85 19.9823 17.405 19.8013 16.875 19.8H13.125C12.5937 19.8 12.1487 19.981 11.79 20.3431C11.4312 20.7051 11.2512 21.1527 11.25 21.6857V31.1143C11.25 31.6486 11.07 32.0967 10.71 32.4588C10.35 32.8208 9.905 33.0012 9.375 33H3.75C2.71875 33 1.83625 32.631 1.1025 31.8931C0.36875 31.1551 0.00125 30.267 0 29.2286Z" fill="white"/>
</svg>
