<svg width="28" height="32" viewBox="0 0 28 32" fill="none" xmlns="http://www.w3.org/2000/svg">
<path d="M13.8044 0C17.4655 0 20.9767 1.49278 23.5656 4.14995C26.1544 6.80712 27.6088 10.411 27.6088 14.1688C27.6088 19.0083 25.0381 22.9692 22.3294 25.8109C20.976 27.2153 19.4994 28.4885 17.9181 29.6144L17.2647 30.071L16.9579 30.2803L16.3797 30.6582L15.8643 30.9809L15.2262 31.3619C14.7931 31.6156 14.3031 31.7491 13.8044 31.7491C13.3057 31.7491 12.8156 31.6156 12.3825 31.3619L11.7445 30.9809L10.9469 30.4771L10.6524 30.2803L10.0235 29.8505C8.31765 28.6659 6.72872 27.3129 5.27941 25.8109C2.57068 22.9677 0 19.0083 0 14.1688C0 10.411 1.45439 6.80712 4.04321 4.14995C6.63204 1.49278 10.1432 0 13.8044 0ZM13.8044 9.44588C13.2001 9.44588 12.6018 9.56804 12.0435 9.80539C11.4852 10.0427 10.9779 10.3906 10.5507 10.8292C10.1234 11.2678 9.78444 11.7884 9.55319 12.3614C9.32195 12.9344 9.20293 13.5486 9.20293 14.1688C9.20293 14.789 9.32195 15.4032 9.55319 15.9762C9.78444 16.5492 10.1234 17.0699 10.5507 17.5084C10.9779 17.947 11.4852 18.2949 12.0435 18.5322C12.6018 18.7696 13.2001 18.8918 13.8044 18.8918C15.0248 18.8918 16.1952 18.3942 17.0581 17.5084C17.9211 16.6227 18.4059 15.4214 18.4059 14.1688C18.4059 12.9162 17.9211 11.7149 17.0581 10.8292C16.1952 9.94347 15.0248 9.44588 13.8044 9.44588Z" fill="#0C2D4B"/>
</svg>
