<svg width="35" height="35" viewBox="0 0 35 35" fill="none" xmlns="http://www.w3.org/2000/svg">
<path d="M23.2564 14.3889C25.5394 13.9003 27.711 14.0507 29.697 14.652V12.2092C29.697 11.0254 29.1402 9.91674 28.2121 9.2027L17.0758 0.746957C16.432 0.261945 15.6509 0 14.8485 0C14.046 0 13.265 0.261945 12.6212 0.746957L1.48485 9.2027C0.556819 9.91674 0 11.0254 0 12.2092V29.1207C0 31.1876 1.67045 32.8788 3.71212 32.8788H14.2545C13.0455 30.339 12.6871 27.4694 13.2337 24.7049C14.1989 19.5939 18.2265 15.4787 23.2564 14.3889Z" fill="white"/>
<path d="M25.9849 16.9697C21.0085 16.9697 16.9697 21.0085 16.9697 25.9848C16.9697 30.9612 21.0085 35 25.9849 35C30.9612 35 35 30.9612 35 25.9848C35 21.0085 30.9612 16.9697 25.9849 16.9697ZM31.394 26.8864H26.8864V31.3939H25.0834V26.8864H20.5758V25.0833H25.0834V20.5758H26.8864V25.0833H31.394V26.8864Z" fill="white"/>
</svg>
