<svg width="32" height="35" viewBox="0 0 32 35" fill="none" xmlns="http://www.w3.org/2000/svg">
<path fill-rule="evenodd" clip-rule="evenodd" d="M15.8844 2.65259C7.11145 2.65259 0 9.76404 0 18.537C0 27.31 7.11145 34.4214 15.8844 34.4214C24.6574 34.4214 31.7688 27.31 31.7688 18.537C31.7688 9.76404 24.6574 2.65259 15.8844 2.65259ZM10.3249 14.5659C10.3249 13.8358 10.4687 13.1129 10.7481 12.4383C11.0275 11.7638 11.437 11.151 11.9532 10.6347C12.4695 10.1185 13.0823 9.70894 13.7569 9.42955C14.4314 9.15015 15.1543 9.00635 15.8844 9.00635C16.6145 9.00635 17.3374 9.15015 18.012 9.42955C18.6865 9.70894 19.2993 10.1185 19.8156 10.6347C20.3319 11.151 20.7414 11.7638 21.0208 12.4383C21.3001 13.1129 21.444 13.8358 21.444 14.5659C21.444 16.0404 20.8582 17.4545 19.8156 18.4971C18.773 19.5397 17.3589 20.1254 15.8844 20.1254C14.4099 20.1254 12.9958 19.5397 11.9532 18.4971C10.9106 17.4545 10.3249 16.0404 10.3249 14.5659ZM25.8249 26.4538C24.6354 27.9491 23.1237 29.1565 21.4025 29.986C19.6813 30.8155 17.7951 31.2457 15.8844 31.2445C13.9737 31.2457 12.0875 30.8155 10.3663 29.986C8.64508 29.1565 7.13339 27.9491 5.94395 26.4538C8.51881 24.6064 12.0324 23.3023 15.8844 23.3023C19.7364 23.3023 23.25 24.6064 25.8249 26.4538Z" fill="#0C2D4B"/>
</svg>
