<svg width="27" height="25" viewBox="0 0 27 25" fill="none" xmlns="http://www.w3.org/2000/svg">
<g filter="url(#filter0_d_2_785)">
<path d="M13.508 4.38422C13.508 5.36263 13.1492 6.30096 12.5105 6.9928C11.8717 7.68464 11.0055 8.07331 10.1022 8.07331C9.19889 8.07331 8.3326 7.68464 7.69388 6.9928C7.05516 6.30096 6.69633 5.36263 6.69633 4.38422C6.69633 3.40581 7.05516 2.46748 7.69388 1.77564C8.3326 1.0838 9.19889 0.695129 10.1022 0.695129C11.0055 0.695129 11.8717 1.0838 12.5105 1.77564C13.1492 2.46748 13.508 3.40581 13.508 4.38422ZM18.2762 8.07331C18.9988 8.07331 19.6918 7.76237 20.2028 7.2089C20.7138 6.65543 21.0009 5.90476 21.0009 5.12204C21.0009 4.33931 20.7138 3.58864 20.2028 3.03517C19.6918 2.4817 18.9988 2.17077 18.2762 2.17077C17.5536 2.17077 16.8605 2.4817 16.3495 3.03517C15.8386 3.58864 15.5515 4.33931 15.5515 5.12204C15.5515 5.90476 15.8386 6.65543 16.3495 7.2089C16.8605 7.76237 17.5536 8.07331 18.2762 8.07331ZM16.9138 11.9011V11.7624C16.9138 10.9642 16.6748 10.1875 16.2327 9.54894H20.6916C21.6125 9.54894 22.3605 10.3576 22.3605 11.3566C22.3605 11.3566 22.3605 14.7137 18.2735 14.7137C17.4588 14.7137 16.8062 14.5809 16.2844 14.3669C16.6086 13.7204 16.8153 13.0126 16.8934 12.2818C16.9016 12.1903 16.907 12.1121 16.9098 12.0472L16.9138 11.9011ZM15.5515 11.7624C15.5515 11.1754 15.3362 10.6124 14.953 10.1972C14.5698 9.78215 14.05 9.54894 13.508 9.54894H6.69633C6.15436 9.54894 5.63459 9.78215 5.25136 10.1972C4.86813 10.6124 4.65283 11.1754 4.65283 11.7624V11.8731C4.65283 11.8731 4.65283 16.1893 10.1022 16.1893C15.2954 16.1893 15.5393 12.27 15.5515 11.9011V11.7624Z" fill="#0C2D4B"/>
</g>
<defs>
<filter id="filter0_d_2_785" x="0.652832" y="0.695129" width="25.7075" height="23.4942" filterUnits="userSpaceOnUse" color-interpolation-filters="sRGB">
<feFlood flood-opacity="0" result="BackgroundImageFix"/>
<feColorMatrix in="SourceAlpha" type="matrix" values="0 0 0 0 0 0 0 0 0 0 0 0 0 0 0 0 0 0 127 0" result="hardAlpha"/>
<feOffset dy="4"/>
<feGaussianBlur stdDeviation="2"/>
<feComposite in2="hardAlpha" operator="out"/>
<feColorMatrix type="matrix" values="0 0 0 0 0 0 0 0 0 0 0 0 0 0 0 0 0 0 0.25 0"/>
<feBlend mode="normal" in2="BackgroundImageFix" result="effect1_dropShadow_2_785"/>
<feBlend mode="normal" in="SourceGraphic" in2="effect1_dropShadow_2_785" result="shape"/>
</filter>
</defs>
</svg>
