<svg width="29" height="30" viewBox="0 0 29 30" fill="none" xmlns="http://www.w3.org/2000/svg">
<mask id="mask0_2_786" style="mask-type:luminance" maskUnits="userSpaceOnUse" x="0" y="0" width="29" height="30">
<path d="M0 0.361084H28.8472V29.2083H0V0.361084Z" fill="white"/>
<path fill-rule="evenodd" clip-rule="evenodd" d="M15.5329 7.5729H9.98535V5.35388H15.5329C17.0042 5.35388 18.4152 5.93835 19.4556 6.97872C20.496 8.01909 21.0804 9.43012 21.0804 10.9014V12.0109C21.0804 13.4822 20.496 14.8933 19.4556 15.9336C18.4152 16.974 17.0042 17.5585 15.5329 17.5585H9.98535V15.3395H15.5329C16.4157 15.3395 17.2623 14.9888 17.8865 14.3646C18.5107 13.7403 18.8614 12.8937 18.8614 12.0109V10.9014C18.8614 10.0186 18.5107 9.17202 17.8865 8.5478C17.2623 7.92358 16.4157 7.5729 15.5329 7.5729Z" fill="black"/>
<path fill-rule="evenodd" clip-rule="evenodd" d="M9.98549 5.35388C10.2797 5.35388 10.562 5.47078 10.77 5.67885C10.9781 5.88692 11.095 6.16913 11.095 6.46339V23.6608C11.095 23.955 10.9781 24.2372 10.77 24.4453C10.562 24.6534 10.2797 24.7703 9.98549 24.7703C9.69123 24.7703 9.40902 24.6534 9.20094 24.4453C8.99287 24.2372 8.87598 23.955 8.87598 23.6608V6.46339C8.87598 6.16913 8.99287 5.88692 9.20094 5.67885C9.40902 5.47078 9.69123 5.35388 9.98549 5.35388Z" fill="black"/>
<path fill-rule="evenodd" clip-rule="evenodd" d="M5.54736 9.72084C5.54736 9.42658 5.66426 9.14437 5.87233 8.9363C6.0804 8.72822 6.36261 8.61133 6.65687 8.61133H22.19C22.4843 8.61133 22.7665 8.72822 22.9745 8.9363C23.1826 9.14437 23.2995 9.42658 23.2995 9.72084C23.2995 10.0151 23.1826 10.2973 22.9745 10.5054C22.7665 10.7135 22.4843 10.8303 22.19 10.8303H6.65687C6.36261 10.8303 6.0804 10.7135 5.87233 10.5054C5.66426 10.2973 5.54736 10.0151 5.54736 9.72084ZM5.54736 13.0494C5.54736 12.7551 5.66426 12.4729 5.87233 12.2648C6.0804 12.0567 6.36261 11.9399 6.65687 11.9399H22.19C22.4843 11.9399 22.7665 12.0567 22.9745 12.2648C23.1826 12.4729 23.2995 12.7551 23.2995 13.0494C23.2995 13.3436 23.1826 13.6258 22.9745 13.8339C22.7665 14.042 22.4843 14.1589 22.19 14.1589H6.65687C6.36261 14.1589 6.0804 14.042 5.87233 13.8339C5.66426 13.6258 5.54736 13.3436 5.54736 13.0494Z" fill="black"/>
</mask>
<g mask="url(#mask0_2_786)">
<path d="M14.4236 29.2083C22.3896 29.2083 28.8472 22.7506 28.8472 14.7847C28.8472 6.81875 22.3896 0.361084 14.4236 0.361084C6.45767 0.361084 0 6.81875 0 14.7847C0 22.7506 6.45767 29.2083 14.4236 29.2083Z" fill="#0C2D4B"/>
</g>
</svg>
