<svg width="33" height="33" viewBox="0 0 33 33" fill="none" xmlns="http://www.w3.org/2000/svg">
<path fill-rule="evenodd" clip-rule="evenodd" d="M7.16271 0.514459C13.3686 -0.171486 19.6313 -0.171486 25.8372 0.514459C29.2732 0.898929 32.0453 3.60023 32.4485 7.04244C33.1838 13.3261 33.1838 19.6739 32.4485 25.9576C32.0453 29.3998 29.2732 32.1011 25.8372 32.4855C19.6313 33.1715 13.3686 33.1715 7.16271 32.4855C3.72669 32.1011 0.954602 29.3998 0.551426 25.9576C-0.183809 19.6746 -0.183809 13.3275 0.551426 7.04444C0.755356 5.37214 1.51901 3.81759 2.71861 2.63274C3.91822 1.44789 5.48348 0.702177 7.1607 0.516462M16.4999 6.50178C16.8989 6.50178 17.2816 6.66001 17.5637 6.94166C17.8458 7.2233 18.0043 7.6053 18.0043 8.00361V14.9982H25.0108C25.4098 14.9982 25.7924 15.1564 26.0745 15.438C26.3567 15.7197 26.5152 16.1017 26.5152 16.5C26.5152 16.8983 26.3567 17.2803 26.0745 17.562C25.7924 17.8436 25.4098 18.0018 25.0108 18.0018H18.0043V24.9964C18.0043 25.3947 17.8458 25.7767 17.5637 26.0583C17.2816 26.34 16.8989 26.4982 16.4999 26.4982C16.101 26.4982 15.7183 26.34 15.4362 26.0583C15.1541 25.7767 14.9956 25.3947 14.9956 24.9964V18.0018H7.98912C7.59013 18.0018 7.20748 17.8436 6.92536 17.562C6.64323 17.2803 6.48473 16.8983 6.48473 16.5C6.48473 16.1017 6.64323 15.7197 6.92536 15.438C7.20748 15.1564 7.59013 14.9982 7.98912 14.9982H14.9956V8.00361C14.9956 7.6053 15.1541 7.2233 15.4362 6.94166C15.7183 6.66001 16.101 6.50178 16.4999 6.50178Z" fill="white"/>
</svg>
