<svg width="34" height="34" viewBox="0 0 34 34" fill="none" xmlns="http://www.w3.org/2000/svg">
<path d="M2.18287 30.5084L2.18286 30.5083L2.1768 30.5108C1.74961 30.6816 1.39268 30.6351 1.03964 30.3759C0.671765 30.1059 0.5 29.7665 0.5 29.3125V4.8125C0.5 4.5372 0.577109 4.30823 0.728616 4.10676C0.884068 3.90004 1.09998 3.73578 1.39598 3.61998L10.4975 0.528882L20.8348 4.14693L21.0087 4.20779L21.1805 4.14128L29.318 0.991284L29.318 0.991313L29.3232 0.989238C29.7499 0.818546 30.1066 0.865252 30.4597 1.12535C30.8287 1.39709 31 1.73645 31 2.1875V15.4554C30.7753 15.2026 30.5372 14.9597 30.2857 14.7269C29.7319 14.2141 29.1366 13.7608 28.5 13.3672V4.725V3.99786L27.821 4.25813L22.571 6.27063L22.25 6.39369V6.7375V11.761C21.7823 11.7818 21.3221 11.8319 20.8696 11.9116C20.4906 11.9783 20.1174 12.0652 19.75 12.1722V6.7375V6.38276L19.4152 6.26557L12.4152 3.81557L11.75 3.58276V4.2875V26.8255L2.18287 30.5084ZM3 26.775V27.5021L3.67897 27.2419L8.92897 25.2294L9.25 25.1063V24.7625V4.2875V3.59379L8.59189 3.81316L3.34189 5.56316L3 5.67712V6.0375V26.775ZM22.7509 29.25H22.75C20.9587 29.25 19.4376 28.618 18.1598 27.3402C16.882 26.0624 16.25 24.5413 16.25 22.75C16.25 20.9587 16.882 19.4376 18.1598 18.1598C19.4376 16.882 20.9587 16.25 22.75 16.25C24.5413 16.25 26.0624 16.882 27.3402 18.1598C28.618 19.4376 29.25 20.9587 29.25 22.75C29.25 23.3809 29.1749 23.9719 29.0272 24.525C28.8798 25.077 28.658 25.5934 28.3615 26.0757L28.1548 26.4119L28.4339 26.6911L32.5429 30.8L30.8 32.5429L26.6911 28.4339L26.4127 28.1556L26.0768 28.3609C25.5926 28.6567 25.0755 28.8788 24.5239 29.0275C23.9728 29.176 23.3824 29.2511 22.7509 29.25ZM22.75 26.75C23.8472 26.75 24.7945 26.424 25.5548 25.7489C26.346 25.0462 26.7194 24.0204 26.7498 22.7633C26.7826 21.6383 26.4044 20.671 25.6164 19.8991C24.8344 19.1331 23.8685 18.75 22.75 18.75C21.6314 18.75 20.6707 19.1334 19.9024 19.903C19.1346 20.6721 18.7513 21.6323 18.75 22.7494C18.7487 23.8675 19.1323 24.8283 19.903 25.5976C20.6732 26.3664 21.6334 26.75 22.75 26.75Z" fill="white" stroke="#FFFDFD"/>
</svg>
